<svg xmlns="http://www.w3.org/2000/svg" viewBox="0 0 24 24" fill="none" stroke="currentColor" stroke-width="1.5" stroke-linecap="round" stroke-linejoin="round">
  <path d="M15.59 14.37l5.66 5.66a2.12 2.12 0 01-3 3l-5.66-5.66m3-3l2.5-3.04c.32-.38.74-.63 1.21-.77M15.59 14.37l-4.66 5.65a2.55 2.55 0 11-3.59-3.58l6.84-5.63m-.111-7.57c.05-.49.05-1-.002-1.49a4.5 4.5 0 00-7.1.63c-.24.3-.43.63-.55 1m7.65.43c.55-.16 1.16-.18 1.73-.08a4.5 4.5 0 01-.63 7.1c-.3.24-.63.43-1 .55"/>
  <path d="M9 9.75l.75.75M8.25 15l-1.5 1.5"/>
</svg>
