<svg xmlns="http://www.w3.org/2000/svg" viewBox="0 0 24 24" fill="none" stroke="currentColor" stroke-width="1.5" stroke-linecap="round" stroke-linejoin="round">
  <path d="M9.594 3.94c.09-.542.56-.94 1.11-.94h2.593c.55 0 1.02.398 1.11.94l.213 1.281c.063.374.313.686.645.87.174.1.347.223.526.356.27.197.612.257.924.15l1.25-.445c.52-.185 1.078.097 1.276.598l1.296 2.247c.198.501-.033 1.084-.546 1.299l-1.225.507c-.31.128-.52.42-.55.746-.027.284-.027.57 0 .854.03.326.24.618.55.746l1.225.507c.513.215.744.798.546 1.299l-1.296 2.247c-.198.501-.756.783-1.276.598l-1.25-.445c-.312-.107-.654-.047-.924.15a4.992 4.992 0 01-.526.356c-.332.183-.582.495-.645.87l-.213 1.281c-.09.543-.56.94-1.11.94h-2.593c-.55 0-1.02-.398-1.11-.94l-.213-1.281c-.063-.374-.313-.686-.645-.87a4.975 4.975 0 01-.526-.356c-.27-.197-.612-.257-.924-.15l-1.25.445c-.52.185-1.078-.097-1.276-.598L3.47 14.596c-.198-.501.033-1.084.546-1.299l1.225-.507c.31-.128.52-.42.55-.746.027-.284.027-.57 0-.854a1.065 1.065 0 00-.55-.746l-1.225-.507c-.513-.215-.744-.798-.546-1.299L5.22 6.55c.198-.501.756-.783 1.276-.598l1.25.445c.312.107.654.047.924-.15.179-.133.352-.256.526-.356.332-.183.582-.495.645-.87l.213-1.281z"/>
  <path d="M15 12a3 3 0 11-6 0 3 3 0 016 0z"/>
</svg>
